<?xml version="1.0" standalone="no"?>
<!DOCTYPE svg PUBLIC "-//W3C//DTD SVG 20010904//EN"
 "http://www.w3.org/TR/2001/REC-SVG-20010904/DTD/svg10.dtd">
<svg version="1.0" xmlns="http://www.w3.org/2000/svg"
 width="500.000000pt" height="500.000000pt" viewBox="0 0 500.000000 500.000000"
 preserveAspectRatio="xMidYMid meet">
<metadata>
Created by potrace 1.14, written by Peter Selinger 2001-2017
</metadata>
<g transform="translate(0.000000,500.000000) scale(0.100000,-0.100000)"
fill="#000000" stroke="none">
<path d="M0 2500 l0 -2500 653 0 c358 0 658 4 665 8 14 9 3 53 -25 105 -8 15
-12 35 -9 43 3 8 2 12 -3 9 -5 -3 -12 -1 -15 4 -11 17 56 23 82 7 7 -4 12 -4
12 1 0 4 8 -4 17 -17 11 -15 18 -47 20 -80 1 -30 2 -58 2 -62 1 -11 71 -10 71
1 0 4 -9 20 -21 35 -28 35 -22 70 13 74 17 2 31 -4 40 -17 8 -12 18 -18 21
-15 3 4 14 4 23 0 11 -4 13 -10 7 -19 -6 -6 -7 -23 -4 -37 5 -20 14 -26 41
-28 26 -2 31 0 20 7 -8 6 -11 13 -8 17 14 13 59 6 79 -12 20 -18 74 -19 1670
-22 l1649 -4 0 2326 c0 1853 -3 2326 -12 2327 -7 1 -22 2 -33 3 -11 1 -19 7
-17 14 2 12 -20 10 -65 -4 -7 -2 -13 1 -13 6 0 18 -74 30 -130 21 -30 -5 -59
-6 -64 -3 -5 3 -6 0 -2 -6 8 -14 -3 -15 -22 -3 -15 9 -36 103 -46 201 -13 126
-9 120 -78 120 l-61 0 6 -72 c19 -217 20 -248 8 -248 -6 0 -11 -7 -11 -15 0
-13 -4 -14 -20 -5 -16 9 -20 8 -20 -6 0 -13 -3 -14 -14 -5 -10 9 -16 8 -26 -3
-8 -11 -31 -15 -76 -14 -37 0 -70 -4 -77 -11 -16 -16 -27 -14 -27 5 0 12 -4
14 -12 7 -7 -6 -22 -9 -32 -7 -11 1 -26 -6 -34 -17 -7 -10 -19 -19 -25 -19
-31 0 -41 46 -50 228 l-10 182 -1004 0 c-564 0 -1002 -4 -999 -9 3 -4 -3 -16
-14 -26 -11 -10 -20 -25 -20 -34 0 -14 2 -14 10 -1 8 13 10 12 10 -2 0 -10 -4
-18 -10 -18 -5 0 -10 -13 -10 -30 0 -16 -4 -30 -9 -30 -4 0 -20 -11 -35 -25
-18 -17 -34 -24 -47 -20 -11 4 -19 2 -19 -4 0 -8 -7 -7 -20 1 -23 14 -42 62
-34 83 4 8 1 15 -6 15 -8 0 -11 9 -8 25 3 14 1 25 -3 25 -5 0 -9 11 -9 25 l0
25 -441 0 -442 0 5 -108 c3 -85 9 -116 26 -147 15 -29 28 -92 46 -235 33 -244
33 -230 -3 -230 -32 0 -61 -22 -61 -46 0 -8 -6 -14 -14 -14 -8 0 -17 -4 -20
-9 -6 -10 18 -168 27 -177 3 -4 29 -6 56 -6 48 0 51 -2 61 -33 14 -42 9 -133
-7 -140 -16 -6 -29 19 -38 75 -4 25 -9 48 -12 53 -2 4 -37 -10 -77 -30 l-72
-38 -99 6 c-110 6 -200 26 -227 49 -10 8 -18 27 -18 42 0 16 -4 36 -10 46 -9
16 -24 116 -37 240 -2 28 -8 52 -12 52 -4 0 -8 6 -8 13 -1 6 -4 37 -8 67 -4
30 -7 63 -7 73 1 9 -3 17 -7 17 -4 0 -7 18 -6 40 1 22 -3 40 -8 40 -4 0 -5 4
-2 10 3 5 1 27 -4 47 -5 21 -11 56 -12 78 -2 22 -6 47 -10 56 -4 8 -10 48 -13
87 -3 39 -8 82 -12 96 l-6 26 -169 0 -169 0 0 -2500z m1164 1468 c7 -44 5 -48
-13 -48 -14 0 -22 8 -27 28 -3 15 -7 32 -9 37 -1 6 2 21 7 34 7 21 11 23 22
10 8 -8 17 -35 20 -61z m84 60 c19 -19 12 -118 -8 -118 -12 0 -30 58 -30 96 0
35 16 44 38 22z m92 -45 c0 -32 -5 -28 -14 10 -4 19 -3 26 4 22 5 -3 10 -18
10 -32z m27 -5 c-3 -8 -6 -5 -6 6 -1 11 2 17 5 13 3 -3 4 -12 1 -19z m1398 3
c3 -11 14 -22 23 -25 14 -5 16 -16 13 -57 -2 -30 -6 -46 -11 -39 -6 9 -10 8
-19 -6 -10 -18 -12 -18 -22 -1 -5 9 -14 15 -20 12 -8 -6 -11 10 -14 80 -2 44
38 73 50 36z m-218 -88 c-2 -21 -4 -6 -4 32 0 39 2 55 4 38 2 -18 2 -50 0 -70z
m80 75 c-3 -8 -6 -5 -6 6 -1 11 2 17 5 13 3 -3 4 -12 1 -19z m63 3 c13 -26 13
-77 -2 -104 -11 -21 -11 -21 -19 -2 -11 29 -11 125 1 125 5 0 14 -9 20 -19z
m-971 -54 c1 -5 -3 -5 -9 -2 -5 3 -10 16 -9 28 0 21 1 21 9 2 5 -11 9 -24 9
-28z m69 -107 l-1 -45 -7 55 c-5 30 -8 73 -8 95 1 39 1 38 8 -10 5 -27 8 -70
8 -95z m852 115 c0 -14 -4 -25 -9 -25 -4 0 -6 11 -3 25 2 14 6 25 8 25 2 0 4
-11 4 -25z m252 -136 c12 -284 14 -369 6 -361 -12 12 -17 59 -28 276 -6 115
-11 212 -12 215 -2 21 4 32 15 29 8 -3 14 -49 19 -159z m-665 94 c-3 -10 -5
-4 -5 12 0 17 2 24 5 18 2 -7 2 -21 0 -30z m-510 -35 c-2 -13 -4 -5 -4 17 -1
22 1 32 4 23 2 -10 2 -28 0 -40z m200 -25 c-3 -10 -5 -4 -5 12 0 17 2 24 5 18
2 -7 2 -21 0 -30z m230 5 c-3 -7 -5 -2 -5 12 0 14 2 19 5 13 2 -7 2 -19 0 -25z
m-420 -75 c-3 -10 -5 -2 -5 17 0 19 2 27 5 18 2 -10 2 -26 0 -35z m70 -55 c-2
-13 -4 -3 -4 22 0 25 2 35 4 23 2 -13 2 -33 0 -45z m360 10 c-3 -7 -5 -2 -5
12 0 14 2 19 5 13 2 -7 2 -19 0 -25z m830 -25 c-3 -10 -5 -4 -5 12 0 17 2 24
5 18 2 -7 2 -21 0 -30z m-1250 -30 c-3 -10 -5 -2 -5 17 0 19 2 27 5 18 2 -10
2 -26 0 -35z m-112 27 c3 -5 1 -10 -4 -10 -6 0 -11 5 -11 10 0 6 2 10 4 10 3
0 8 -4 11 -10z m192 -180 c0 -41 -1 -39 -7 15 -4 33 -8 80 -7 105 0 41 1 39 7
-15 4 -33 8 -80 7 -105z m-130 98 c-3 -8 -6 -5 -6 6 -1 11 2 17 5 13 3 -3 4
-12 1 -19z m60 -30 c-3 -7 -5 -2 -5 12 0 14 2 19 5 13 2 -7 2 -19 0 -25z m200
-80 c-3 -7 -5 -2 -5 12 0 14 2 19 5 13 2 -7 2 -19 0 -25z m-190 -30 c-2 -13
-4 -5 -4 17 -1 22 1 32 4 23 2 -10 2 -28 0 -40z m-660 -5 c-3 -10 -5 -4 -5 12
0 17 2 24 5 18 2 -7 2 -21 0 -30z m730 -65 c-2 -13 -4 -3 -4 22 0 25 2 35 4
23 2 -13 2 -33 0 -45z m130 -10 c-3 -7 -5 -2 -5 12 0 14 2 19 5 13 2 -7 2 -19
0 -25z m-1917 -68 c0 -5 -4 -10 -10 -10 -5 0 -10 5 -10 10 0 6 5 10 10 10 6 0
10 -4 10 -10z m925 -20 c66 -35 95 -88 95 -179 -1 -103 -36 -165 -116 -200
l-36 -16 32 -43 c17 -24 56 -80 87 -123 l55 -80 -59 3 -58 3 -79 118 -80 117
-73 0 -73 0 0 -120 0 -120 -45 0 -45 0 0 336 0 336 173 -4 c162 -3 176 -5 222
-28z m1335 -44 l0 -64 87 -1 c93 -1 105 -7 100 -51 -4 -24 -6 -25 -95 -28
l-92 -3 0 -159 c0 -154 1 -160 24 -187 23 -26 28 -28 95 -25 l71 2 0 -38 c0
-34 -3 -39 -32 -47 -42 -13 -154 0 -185 20 -47 31 -60 68 -67 192 -8 141 -8
135 -26 151 -13 11 -12 12 5 10 17 -3 20 4 23 40 l3 42 -40 0 -41 0 0 40 c0
40 0 40 39 40 37 0 39 2 45 38 3 20 6 49 6 65 0 25 3 27 40 27 l40 0 0 -64z
m87 2 c-3 -7 -5 -2 -5 12 0 14 2 19 5 13 2 -7 2 -19 0 -25z m398 23 c8 -14 -9
-21 -35 -14 -22 6 -23 7 -4 14 26 10 32 10 39 0z m-1272 -109 c64 -37 94 -117
85 -232 l-3 -45 -176 -3 -176 -2 8 -45 c14 -76 38 -99 117 -111 35 -5 139 7
190 22 22 6 23 4 20 -31 -3 -34 -7 -39 -43 -52 -58 -20 -182 -27 -233 -14
-102 28 -147 111 -146 272 0 86 4 103 30 155 30 61 64 89 127 105 51 13 164 2
200 -19z m496 22 c28 -6 31 -10 31 -45 l0 -38 -109 2 c-95 2 -112 0 -130 -17
-22 -20 -30 -89 -12 -101 5 -3 58 -14 116 -25 159 -28 189 -63 165 -191 -19
-103 -97 -141 -256 -125 -124 13 -124 13 -124 62 0 42 0 43 28 34 57 -16 168
-22 210 -11 33 9 43 17 52 45 11 33 2 77 -18 90 -5 3 -54 13 -108 21 -58 9
-109 23 -124 34 -35 26 -52 91 -39 151 12 54 38 83 94 104 41 15 169 21 224
10z m882 -20 c18 -11 41 -37 53 -59 19 -36 21 -59 23 -247 l3 -208 -45 0 c-39
0 -45 3 -45 21 0 16 -4 19 -17 14 -148 -64 -257 -58 -303 17 -24 40 -27 132
-6 183 24 57 62 70 205 70 l123 0 -6 49 c-10 91 -64 115 -213 98 l-73 -8 0 37
c0 36 2 38 38 44 20 4 44 8 52 10 41 11 181 -4 211 -21z m1434 15 c22 -6 51
-21 64 -32 46 -42 51 -72 51 -292 l0 -205 -40 0 c-35 0 -40 3 -40 23 l0 24
-51 -25 c-34 -17 -72 -26 -122 -29 -64 -4 -76 -2 -107 19 -45 31 -63 69 -64
138 0 74 19 110 74 138 40 21 56 23 153 20 l107 -3 0 45 c0 59 -20 87 -73 101
-39 10 -158 6 -193 -8 -11 -4 -14 5 -14 36 0 34 4 41 23 45 12 3 31 7 42 9 41
9 151 7 190 -4z m-1144 -181 c1 -101 4 -194 8 -207 12 -43 54 -65 120 -64 33
1 75 8 94 16 l34 15 7 95 c4 53 6 147 5 209 l-2 113 42 3 41 3 0 -265 0 -266
-40 0 c-34 0 -40 3 -40 21 0 16 -4 19 -17 14 -116 -50 -186 -57 -253 -22 -78
39 -84 69 -81 375 l1 142 40 0 40 0 1 -182z m577 155 l3 -23 41 21 c23 12 68
24 100 26 l58 6 0 -40 0 -40 -62 -5 c-35 -3 -80 -13 -100 -21 l-38 -16 0 -205
0 -206 -38 0 -39 0 -6 158 c-9 206 -9 357 0 366 4 4 23 6 43 4 28 -2 36 -8 38
-25z m296 -557 c23 -5 2 -125 -24 -141 -7 -4 -8 -10 -3 -14 5 -3 1 -14 -9 -24
-18 -17 -19 -16 -29 10 -5 15 -12 56 -14 90 -1 35 -8 70 -14 77 -9 11 -3 13
36 9 27 -3 52 -6 57 -7z m-1060 -123 c14 -42 24 -50 66 -58 30 -5 40 -2 63 19
34 31 31 31 73 5 37 -22 40 -34 22 -74 -10 -23 -9 -29 18 -53 l29 -27 -59 -3
c-48 -3 -71 2 -120 25 -52 24 -74 28 -147 28 -76 0 -93 -4 -151 -33 -77 -38
-130 -92 -167 -171 -36 -77 -37 -202 -2 -274 35 -71 104 -142 169 -174 50 -25
68 -28 152 -28 84 0 101 3 148 28 39 20 68 27 108 27 59 0 68 -11 32 -39 -19
-16 -20 -21 -10 -51 16 -46 16 -46 -23 -70 -33 -21 -37 -21 -60 -6 -14 9 -25
21 -25 26 0 13 -25 13 -72 0 -31 -9 -37 -16 -45 -48 -8 -36 -10 -37 -55 -40
l-47 -3 -11 40 c-9 35 -16 42 -48 51 -51 14 -52 14 -84 -17 l-29 -27 -35 19
c-35 19 -36 20 -30 65 6 43 4 48 -27 78 -30 29 -37 32 -62 22 -36 -14 -59 -6
-73 26 -17 35 -15 45 12 73 22 24 23 29 13 73 -10 43 -15 49 -44 54 -42 8 -55
25 -51 65 3 33 15 44 58 53 21 4 27 14 37 53 11 46 10 49 -13 66 -26 21 -30
43 -12 81 14 32 38 40 72 24 25 -11 30 -9 62 24 34 33 35 37 26 72 -10 34 -9
38 22 61 41 31 47 31 76 0 19 -21 30 -24 55 -20 57 12 62 16 74 56 12 40 12
40 58 37 42 -3 47 -6 57 -35z m776 -33 c24 -24 26 -67 3 -92 -12 -13 -31 -18
-72 -18 -112 0 -184 -38 -222 -117 -35 -73 -16 -177 44 -234 45 -43 82 -51
258 -53 149 -1 169 -3 188 -20 26 -24 27 -67 1 -91 -17 -16 -41 -18 -197 -18
-174 0 -180 0 -240 28 -148 66 -229 225 -193 376 16 64 24 80 72 140 62 77
154 115 281 118 45 1 61 -3 77 -19z m107 -76 c-3 -3 -12 -4 -19 -1 -8 3 -5 6
6 6 11 1 17 -2 13 -5z m3 -44 c0 -5 -7 -10 -16 -10 -8 0 -12 5 -9 10 3 6 10
10 16 10 5 0 9 -4 9 -10z m483 -28 c-7 -7 -13 -18 -13 -23 0 -15 -47 -21 -69
-9 -12 6 -21 18 -21 28 0 14 10 17 58 17 48 0 56 -2 45 -13z m-350 -26 c27 -6
39 -36 13 -36 -16 0 -86 28 -86 35 0 2 7 1 17 -2 11 -4 14 -3 9 5 -4 7 -2 10
6 8 7 -3 25 -7 41 -10z m-68 -78 c162 -9 264 -97 306 -263 16 -64 5 -138 -31
-212 -35 -71 -82 -115 -160 -152 -54 -26 -60 -26 -305 -29 -278 -3 -288 -1
-288 57 0 42 21 61 74 68 24 3 54 13 66 20 14 10 30 12 45 7 40 -13 50 -15
180 -21 107 -5 135 -3 173 11 52 20 86 57 111 122 34 90 -10 200 -99 243 -39
19 -61 21 -210 21 -154 0 -169 2 -187 20 -11 11 -20 33 -20 50 0 47 33 62 140
62 68 1 93 5 97 15 5 11 7 11 17 -1 7 -9 38 -15 91 -18z m722 0 c-3 -8 -6 -5
-6 6 -1 11 2 17 5 13 3 -3 4 -12 1 -19z m-1107 -459 c0 -6 -4 -7 -10 -4 -5 3
-10 11 -10 16 0 6 5 7 10 4 6 -3 10 -11 10 -16z m320 -28 c0 -5 -11 -11 -25
-13 -14 -3 -25 -3 -25 -1 0 3 34 19 48 22 1 1 2 -3 2 -8z m-215 -231 c3 -5 -1
-10 -10 -10 -9 0 -13 5 -10 10 3 6 8 10 10 10 2 0 7 -4 10 -10z m-225 -30 c0
-5 16 -10 35 -10 42 0 46 -16 8 -33 -16 -6 -34 -17 -41 -24 -32 -30 -92 1 -92
47 0 16 5 19 24 14 13 -3 27 -1 30 5 9 14 36 14 36 1z m-2924 -924 c-2 -11 1
-38 9 -59 16 -46 9 -77 -16 -77 -21 0 -44 42 -40 73 1 10 -3 25 -9 33 -18 21
12 64 40 57 16 -4 20 -11 16 -27z m74 4 c0 -5 -8 -10 -17 -10 -15 0 -16 2 -3
10 19 12 20 12 20 0z m49 -36 c7 -6 30 -157 25 -163 -8 -9 -55 12 -60 27 -3 9
-10 25 -15 34 -5 10 -9 25 -9 33 0 8 -5 15 -12 15 -6 0 -9 3 -6 6 4 3 3 18 -2
33 -8 28 -7 28 33 25 22 -2 43 -6 46 -10z m51 -24 c0 -6 12 -9 28 -8 18 2 26
-1 24 -10 -1 -8 2 -11 8 -7 5 3 18 0 27 -7 14 -10 19 -31 21 -91 3 -76 2 -78
-20 -75 -14 2 -29 17 -43 43 -11 22 -26 44 -33 48 -9 6 -11 18 -8 33 4 16 1
30 -9 40 -17 17 -20 44 -5 44 6 0 10 -5 10 -10z m247 -160 c15 -74 8 -108 -21
-103 -22 5 -46 45 -82 138 -14 34 -3 55 28 55 15 0 18 5 14 18 -4 9 6 1 21
-18 16 -19 33 -58 40 -90z m393 70 c0 -5 -4 -10 -10 -10 -5 0 -10 5 -10 10 0
6 5 10 10 10 6 0 10 -4 10 -10z m-333 -45 c15 -1 36 -3 46 -3 9 -1 17 -8 17
-16 0 -8 7 -16 15 -20 11 -4 14 -22 13 -78 0 -40 -3 -76 -5 -80 -2 -5 -16 -2
-31 6 -20 10 -31 27 -40 61 -7 26 -23 56 -35 66 -12 10 -17 18 -10 19 9 0 8 8
-3 28 -15 29 -19 56 -5 33 5 -8 22 -15 38 -16z m147 -65 c12 0 28 -6 35 -12
11 -11 14 -10 18 0 3 8 10 5 23 -10 12 -16 16 -33 13 -59 -3 -20 -1 -39 4 -42
16 -10 3 -77 -15 -77 -23 0 -52 30 -52 54 0 12 -12 39 -27 61 -16 23 -28 55
-29 75 0 19 1 29 3 23 3 -7 15 -13 27 -13z m160 -45 c3 -8 1 -15 -4 -15 -6 0
-10 7 -10 15 0 8 2 15 4 15 2 0 6 -7 10 -15z m301 -145 c3 -5 -1 -10 -9 -10
-8 0 -18 5 -21 10 -3 6 1 10 9 10 8 0 18 -4 21 -10z"/>
<path d="M660 3102 l0 -135 108 5 c158 7 194 31 195 132 1 101 -39 127 -200
131 l-103 2 0 -135z"/>
<path d="M1321 3097 c-41 -15 -67 -49 -74 -99 l-6 -38 141 0 141 0 -7 43 c-10
58 -29 84 -73 96 -48 14 -79 13 -122 -2z"/>
<path d="M2672 2879 c-18 -5 -38 -20 -44 -34 -13 -29 -3 -88 19 -106 25 -21
140 -17 188 7 40 19 40 20 38 72 0 30 -3 55 -5 57 -10 10 -167 13 -196 4z"/>
<path d="M4160 2880 c-18 -5 -40 -16 -47 -26 -19 -26 -16 -78 6 -105 17 -21
27 -24 88 -23 38 1 85 8 106 17 37 16 37 16 37 75 l0 59 -52 7 c-64 7 -92 6
-138 -4z"/>
<path d="M1870 4820 c0 -5 5 -10 10 -10 6 0 10 5 10 10 0 6 -4 10 -10 10 -5 0
-10 -4 -10 -10z"/>
<path d="M1440 109 c0 -5 5 -7 10 -4 6 3 10 8 10 11 0 2 -4 4 -10 4 -5 0 -10
-5 -10 -11z"/>
</g>
</svg>
